<?xml version="1.0" standalone="no"?>
<!DOCTYPE svg PUBLIC "-//W3C//DTD SVG 20010904//EN"
 "http://www.w3.org/TR/2001/REC-SVG-20010904/DTD/svg10.dtd">
<svg version="1.0" xmlns="http://www.w3.org/2000/svg"
 width="270.000000pt" height="233.000000pt" viewBox="0 0 270.000000 233.000000"
 preserveAspectRatio="xMidYMid meet">
<metadata>
Created by potrace 1.16, written by Peter Selinger 2001-2019
</metadata>
<g transform="translate(0.000000,233.000000) scale(0.100000,-0.100000)"
fill="#42b883" stroke="none">
<path d="M2258 2196 c-157 -68 -152 -63 -529 -653 -84 -134 -157 -243 -161
-243 -5 0 -8 43 -8 96 0 175 -47 390 -107 493 -149 255 -493 302 -812 112 -89
-53 -209 -157 -265 -230 -134 -174 -158 -353 -71 -535 52 -111 41 -107 142
-46 156 95 146 82 112 143 -51 92 -73 173 -74 267 0 77 3 92 33 152 38 78 100
138 182 177 46 22 69 26 140 26 75 0 93 -4 153 -32 141 -67 231 -190 306 -421
51 -154 64 -282 52 -487 -10 -175 -10 -175 -57 -265 -59 -115 -168 -279 -232
-351 -56 -62 -139 -108 -250 -140 -56 -16 -100 -19 -279 -19 l-211 0 -54 -92
-54 -93 140 -3 c443 -9 642 71 809 326 81 123 709 1154 830 1363 64 109 104
154 162 180 57 26 108 23 237 -17 13 -4 34 26 93 131 43 75 79 144 82 154 6
25 -55 41 -153 41 -68 0 -90 -5 -156 -34z"/>
</g>
</svg>
